<?xml version="1.0" encoding="utf-8"?>
<!-- Generator: Adobe Illustrator 16.0.0, SVG Export Plug-In . SVG Version: 6.00 Build 0)  -->
<!DOCTYPE svg PUBLIC "-//W3C//DTD SVG 1.1//EN" "http://www.w3.org/Graphics/SVG/1.1/DTD/svg11.dtd">
<svg version="1.1" id="Layer_1" xmlns="http://www.w3.org/2000/svg" xmlns:xlink="http://www.w3.org/1999/xlink" x="0px" y="0px"
	 width="1062px" height="232px" viewBox="0 0 1062 232" enable-background="new 0 0 1062 232" xml:space="preserve">
<linearGradient id="SVGID_1_" gradientUnits="userSpaceOnUse" x1="822.1172" y1="139.498" x2="1046.9141" y2="139.498">
	<stop  offset="0" style="stop-color:#DA1F24"/>
	<stop  offset="0.1129" style="stop-color:#970100"/>
	<stop  offset="0.183" style="stop-color:#AA0101"/>
	<stop  offset="0.2097" style="stop-color:#B30101"/>
	<stop  offset="0.2688" style="stop-color:#DD0D11"/>
	<stop  offset="0.299" style="stop-color:#EC242B"/>
	<stop  offset="0.3334" style="stop-color:#FA3842"/>
	<stop  offset="0.3548" style="stop-color:#FF404B"/>
	<stop  offset="0.3919" style="stop-color:#E82C33"/>
	<stop  offset="0.4301" style="stop-color:#D51B1F"/>
	<stop  offset="0.4892" style="stop-color:#C40101"/>
	<stop  offset="0.5484" style="stop-color:#B50101"/>
	<stop  offset="0.6344" style="stop-color:#9E0100"/>
	<stop  offset="0.6935" style="stop-color:#B20101"/>
	<stop  offset="0.8602" style="stop-color:#EB2B32"/>
</linearGradient>
<polygon fill="url(#SVGID_1_)" points="1046.914,198.373 822.117,198.373 822.117,80.624 1046.914,80.624 992.238,139.502 "/>
<linearGradient id="SVGID_2_" gradientUnits="userSpaceOnUse" x1="63.1045" y1="98.5703" x2="280.1982" y2="98.5703" gradientTransform="matrix(-1 0 0 1 1096.8945 0)">
	<stop  offset="0.0525" style="stop-color:#B79B45"/>
	<stop  offset="0.1814" style="stop-color:#D6B351"/>
	<stop  offset="0.2676" style="stop-color:#E6C057"/>
	<stop  offset="0.3079" style="stop-color:#E8C465"/>
	<stop  offset="0.4416" style="stop-color:#ECD38E"/>
	<stop  offset="0.5104" style="stop-color:#EED89E"/>
	<stop  offset="0.7379" style="stop-color:#E6C058"/>
	<stop  offset="0.7409" style="stop-color:#E6C057"/>
</linearGradient>
<polygon fill="url(#SVGID_2_)" points="816.696,102.506 1026.783,102.506 1033.79,94.635 816.696,94.635 "/>
<linearGradient id="SVGID_3_" gradientUnits="userSpaceOnUse" x1="62.5078" y1="187.2178" x2="274.5967" y2="187.2178" gradientTransform="matrix(-1 0 0 -1 1096.8945 368.2852)">
	<stop  offset="0.0525" style="stop-color:#B79B45"/>
	<stop  offset="0.1814" style="stop-color:#D6B351"/>
	<stop  offset="0.2676" style="stop-color:#E6C057"/>
	<stop  offset="0.3079" style="stop-color:#E8C465"/>
	<stop  offset="0.4416" style="stop-color:#ECD38E"/>
	<stop  offset="0.5104" style="stop-color:#EED89E"/>
	<stop  offset="0.7379" style="stop-color:#E6C058"/>
	<stop  offset="0.7409" style="stop-color:#E6C057"/>
</linearGradient>
<polygon fill="url(#SVGID_3_)" points="822.298,177.132 1027.38,177.132 1034.387,185.003 822.298,185.003 "/>
<linearGradient id="SVGID_4_" gradientUnits="userSpaceOnUse" x1="822.1172" y1="139.7734" x2="940.5449" y2="139.7734">
	<stop  offset="0.1398" style="stop-color:#2D0000"/>
	<stop  offset="0.1574" style="stop-color:#340000"/>
	<stop  offset="0.3268" style="stop-color:#780000"/>
	<stop  offset="0.4061" style="stop-color:#930000"/>
	<stop  offset="0.4103" style="stop-color:#920000"/>
	<stop  offset="0.5128" style="stop-color:#760000"/>
	<stop  offset="0.6164" style="stop-color:#630000"/>
	<stop  offset="0.721" style="stop-color:#570000"/>
	<stop  offset="0.828" style="stop-color:#530000"/>
	<stop  offset="1" style="stop-color:#F72336"/>
</linearGradient>
<polygon fill="url(#SVGID_4_)" points="940.545,123.977 940.545,161.453 822.117,198.373 822.117,100.64 940.545,81.174 "/>
<linearGradient id="SVGID_5_" gradientUnits="userSpaceOnUse" x1="17.0811" y1="139.498" x2="243.4932" y2="139.498">
	<stop  offset="0.0161" style="stop-color:#900001"/>
	<stop  offset="0.1398" style="stop-color:#EB2B32"/>
	<stop  offset="0.3065" style="stop-color:#B20101"/>
	<stop  offset="0.3656" style="stop-color:#9E0100"/>
	<stop  offset="0.4516" style="stop-color:#B50101"/>
	<stop  offset="0.5108" style="stop-color:#C40101"/>
	<stop  offset="0.5699" style="stop-color:#D51B1F"/>
	<stop  offset="0.6081" style="stop-color:#E82C33"/>
	<stop  offset="0.6452" style="stop-color:#FF404B"/>
	<stop  offset="0.6666" style="stop-color:#FA3842"/>
	<stop  offset="0.701" style="stop-color:#EC242B"/>
	<stop  offset="0.7312" style="stop-color:#DD0D11"/>
	<stop  offset="0.7903" style="stop-color:#B30101"/>
	<stop  offset="0.817" style="stop-color:#AA0101"/>
	<stop  offset="0.8871" style="stop-color:#970100"/>
	<stop  offset="1" style="stop-color:#DA1F24"/>
</linearGradient>
<polygon fill="url(#SVGID_5_)" points="17.081,198.373 243.493,198.373 243.493,80.624 17.081,80.624 61.64,141.438 "/>
<linearGradient id="SVGID_6_" gradientUnits="userSpaceOnUse" x1="27.3999" y1="98.6426" x2="243.4932" y2="98.6426">
	<stop  offset="0.0525" style="stop-color:#B79B45"/>
	<stop  offset="0.1814" style="stop-color:#D6B351"/>
	<stop  offset="0.2676" style="stop-color:#E6C057"/>
	<stop  offset="0.3079" style="stop-color:#E8C465"/>
	<stop  offset="0.4416" style="stop-color:#ECD38E"/>
	<stop  offset="0.5104" style="stop-color:#EED89E"/>
	<stop  offset="0.7379" style="stop-color:#E6C058"/>
	<stop  offset="0.7409" style="stop-color:#E6C057"/>
</linearGradient>
<polygon fill="url(#SVGID_6_)" points="243.493,102.578 33.406,102.578 27.4,94.707 243.493,94.707 "/>
<linearGradient id="SVGID_7_" gradientUnits="userSpaceOnUse" x1="27.3999" y1="187.1455" x2="243.4932" y2="187.1455" gradientTransform="matrix(1 0 0 -1 0 368.2852)">
	<stop  offset="0.0525" style="stop-color:#B79B45"/>
	<stop  offset="0.1814" style="stop-color:#D6B351"/>
	<stop  offset="0.2676" style="stop-color:#E6C057"/>
	<stop  offset="0.3079" style="stop-color:#E8C465"/>
	<stop  offset="0.4416" style="stop-color:#ECD38E"/>
	<stop  offset="0.5104" style="stop-color:#EED89E"/>
	<stop  offset="0.7379" style="stop-color:#E6C058"/>
	<stop  offset="0.7409" style="stop-color:#E6C057"/>
</linearGradient>
<polygon fill="url(#SVGID_7_)" points="243.493,177.204 33.406,177.204 27.4,185.075 243.493,185.075 "/>
<linearGradient id="SVGID_8_" gradientUnits="userSpaceOnUse" x1="123.2798" y1="139.7734" x2="243.4932" y2="139.7734">
	<stop  offset="0" style="stop-color:#F72336"/>
	<stop  offset="0.172" style="stop-color:#530000"/>
	<stop  offset="0.279" style="stop-color:#570000"/>
	<stop  offset="0.3836" style="stop-color:#630000"/>
	<stop  offset="0.4872" style="stop-color:#760000"/>
	<stop  offset="0.5897" style="stop-color:#920000"/>
	<stop  offset="0.5939" style="stop-color:#930000"/>
	<stop  offset="0.6732" style="stop-color:#780000"/>
	<stop  offset="0.8426" style="stop-color:#340000"/>
	<stop  offset="0.8602" style="stop-color:#2D0000"/>
</linearGradient>
<polygon fill="url(#SVGID_8_)" points="124.173,123.977 123.28,161.453 243.493,198.373 243.493,100.64 124.173,81.174 "/>
<linearGradient id="SVGID_9_" gradientUnits="userSpaceOnUse" x1="123.2798" y1="102.5791" x2="940.5449" y2="102.5791">
	<stop  offset="0.0061" style="stop-color:#900001"/>
	<stop  offset="0.0424" style="stop-color:#BF0101"/>
	<stop  offset="0.0848" style="stop-color:#F02A32"/>
	<stop  offset="0.1576" style="stop-color:#D2070A"/>
	<stop  offset="0.2545" style="stop-color:#B20101"/>
	<stop  offset="0.2779" style="stop-color:#B60101"/>
	<stop  offset="0.3667" style="stop-color:#BF0101"/>
	<stop  offset="0.4909" style="stop-color:#C20101"/>
	<stop  offset="0.5273" style="stop-color:#C40101"/>
	<stop  offset="0.7879" style="stop-color:#BA0101"/>
	<stop  offset="0.8667" style="stop-color:#DD0D11"/>
	<stop  offset="0.9039" style="stop-color:#F42F38"/>
	<stop  offset="0.9273" style="stop-color:#FF404B"/>
	<stop  offset="0.9361" style="stop-color:#F83942"/>
	<stop  offset="0.9504" style="stop-color:#E4252B"/>
	<stop  offset="0.9681" style="stop-color:#C50405"/>
	<stop  offset="0.9697" style="stop-color:#C20101"/>
	<stop  offset="1" style="stop-color:#970100"/>
</linearGradient>
<polygon fill="url(#SVGID_9_)" points="123.28,43.705 940.545,43.705 940.545,123.977 940.545,161.453 877.378,161.453 
	180.318,161.453 123.28,161.453 123.28,123.977 "/>
<linearGradient id="SVGID_10_" gradientUnits="userSpaceOnUse" x1="123.2798" y1="57.418" x2="940.5449" y2="57.418">
	<stop  offset="0.0525" style="stop-color:#B79B45"/>
	<stop  offset="0.1814" style="stop-color:#D6B351"/>
	<stop  offset="0.2676" style="stop-color:#E6C057"/>
	<stop  offset="0.3079" style="stop-color:#E8C465"/>
	<stop  offset="0.4416" style="stop-color:#ECD38E"/>
	<stop  offset="0.5104" style="stop-color:#EED89E"/>
	<stop  offset="0.7379" style="stop-color:#E6C058"/>
	<stop  offset="0.7409" style="stop-color:#E6C057"/>
</linearGradient>
<rect x="123.28" y="52.832" fill="url(#SVGID_10_)" width="817.265" height="9.172"/>
<linearGradient id="SVGID_11_" gradientUnits="userSpaceOnUse" x1="123.2798" y1="147.4443" x2="940.5449" y2="147.4443">
	<stop  offset="0.0525" style="stop-color:#B79B45"/>
	<stop  offset="0.1814" style="stop-color:#D6B351"/>
	<stop  offset="0.2676" style="stop-color:#E6C057"/>
	<stop  offset="0.3079" style="stop-color:#E8C465"/>
	<stop  offset="0.4416" style="stop-color:#ECD38E"/>
	<stop  offset="0.5104" style="stop-color:#EED89E"/>
	<stop  offset="0.7379" style="stop-color:#E6C058"/>
	<stop  offset="0.7409" style="stop-color:#E6C057"/>
</linearGradient>
<rect x="123.28" y="142.858" fill="url(#SVGID_11_)" width="817.265" height="9.172"/>
<g>
	<linearGradient id="SVGID_12_" gradientUnits="userSpaceOnUse" x1="436.1201" y1="100.6392" x2="633.4629" y2="100.6392">
		<stop  offset="0" style="stop-color:#DFA44D"/>
		<stop  offset="0.2978" style="stop-color:#AD7A35"/>
		<stop  offset="0.3576" style="stop-color:#805C34"/>
		<stop  offset="0.4485" style="stop-color:#8B5A25"/>
		<stop  offset="0.6124" style="stop-color:#E9BC68"/>
		<stop  offset="0.8121" style="stop-color:#F6E689"/>
		<stop  offset="0.8312" style="stop-color:#E3CD73"/>
		<stop  offset="0.8588" style="stop-color:#CDAF5A"/>
		<stop  offset="0.8881" style="stop-color:#BB9846"/>
		<stop  offset="0.9195" style="stop-color:#AF8838"/>
		<stop  offset="0.9544" style="stop-color:#A77E30"/>
		<stop  offset="1" style="stop-color:#A57B2D"/>
	</linearGradient>
	<path fill="url(#SVGID_12_)" d="M632.268,97.638c1.594,1.652,1.594,4.352,0,6.003l-12.315,12.78
		c-1.592,1.655-2.303,4.785-1.584,6.961l5.566,16.862c0.719,2.175-0.455,4.605-2.604,5.4l-16.66,6.15
		c-2.152,0.791-4.157,3.303-4.451,5.576l-2.301,17.607c-0.296,2.274-2.409,3.959-4.691,3.743l-17.676-1.661
		c-2.283-0.214-5.177,1.182-6.433,3.098l-9.712,14.867c-1.255,1.919-3.884,2.518-5.847,1.33l-15.199-9.193
		c-1.963-1.187-5.174-1.187-7.132,0l-15.205,9.193c-1.96,1.188-4.589,0.589-5.844-1.33l-9.715-14.867
		c-1.253-1.916-4.147-3.312-6.429-3.098l-17.68,1.661c-2.28,0.216-4.39-1.469-4.689-3.743l-2.303-17.607
		c-0.293-2.273-2.296-4.785-4.451-5.576l-16.658-6.15c-2.155-0.795-3.323-3.226-2.605-5.4l5.57-16.862
		c0.718-2.176,0.002-5.306-1.587-6.961l-12.319-12.78c-1.592-1.651-1.592-4.351,0-6.003l12.319-12.782
		c1.59-1.653,2.306-4.784,1.587-6.961l-5.57-16.862c-0.718-2.173,0.45-4.606,2.605-5.399l16.658-6.148
		c2.154-0.797,4.157-3.303,4.451-5.576l2.303-17.609c0.299-2.276,2.409-3.958,4.689-3.745l17.68,1.661
		c2.282,0.214,5.176-1.18,6.429-3.098l9.715-14.864c1.254-1.921,3.883-2.518,5.844-1.332l15.205,9.198
		c1.958,1.185,5.169,1.185,7.132,0l15.199-9.198c1.963-1.186,4.592-0.589,5.847,1.332l9.712,14.864
		c1.256,1.918,4.149,3.312,6.433,3.098l17.676-1.661c2.282-0.213,4.396,1.469,4.691,3.745l2.301,17.609
		c0.294,2.273,2.299,4.779,4.451,5.576l16.66,6.148c2.149,0.792,3.323,3.226,2.604,5.399l-5.566,16.862
		c-0.719,2.177-0.008,5.308,1.584,6.961L632.268,97.638z"/>
	<linearGradient id="SVGID_13_" gradientUnits="userSpaceOnUse" x1="438.2129" y1="100.6387" x2="631.374" y2="100.6387">
		<stop  offset="0" style="stop-color:#DFA44D"/>
		<stop  offset="0.2978" style="stop-color:#AD7A35"/>
		<stop  offset="0.3576" style="stop-color:#805C34"/>
		<stop  offset="0.4485" style="stop-color:#8B5A25"/>
		<stop  offset="0.6124" style="stop-color:#E9BC68"/>
		<stop  offset="0.8121" style="stop-color:#F6E689"/>
		<stop  offset="0.8312" style="stop-color:#E3CD73"/>
		<stop  offset="0.8588" style="stop-color:#CDAF5A"/>
		<stop  offset="0.8881" style="stop-color:#BB9846"/>
		<stop  offset="0.9195" style="stop-color:#AF8838"/>
		<stop  offset="0.9544" style="stop-color:#A77E30"/>
		<stop  offset="1" style="stop-color:#A57B2D"/>
	</linearGradient>
	<path fill="url(#SVGID_13_)" d="M612.098,160.094c0.183,2.284-1.525,4.374-3.803,4.643l-17.629,2.082
		c-2.28,0.269-4.816,2.237-5.638,4.379l-6.381,16.568c-0.825,2.143-3.271,3.277-5.434,2.529l-16.787-5.803
		c-2.169-0.751-5.306-0.075-6.979,1.493l-12.936,12.163c-1.673,1.571-4.374,1.535-6.005-0.073l-12.62-12.489
		c-1.628-1.613-4.751-2.371-6.938-1.678l-16.935,5.342c-2.185,0.688-4.599-0.515-5.365-2.677l-5.929-16.744
		c-0.768-2.16-3.25-4.199-5.521-4.523l-17.584-2.517c-2.271-0.327-3.923-2.457-3.679-4.736l1.903-17.655
		c0.249-2.28-1.105-5.192-3.008-6.473l-14.724-9.917c-1.903-1.283-2.469-3.922-1.256-5.869l9.377-15.078
		c1.213-1.946,1.252-5.157,0.095-7.134l-8.992-15.318c-1.159-1.977-0.527-4.597,1.408-5.826l14.992-9.516
		c1.935-1.229,3.365-4.1,3.185-6.39l-1.43-17.691c-0.185-2.287,1.528-4.373,3.806-4.642l17.628-2.082
		c2.281-0.271,4.816-2.24,5.636-4.38l6.381-16.568c0.825-2.143,3.269-3.278,5.436-2.532l16.786,5.806
		c2.165,0.75,5.309,0.076,6.978-1.497l12.939-12.162c1.67-1.572,4.37-1.534,6,0.079l12.62,12.488
		c1.63,1.613,4.754,2.366,6.938,1.673l16.938-5.338c2.184-0.692,4.599,0.513,5.364,2.674l5.93,16.746
		c0.769,2.161,3.249,4.196,5.519,4.522l17.586,2.521c2.271,0.321,3.925,2.454,3.679,4.734l-1.906,17.652
		c-0.247,2.282,1.109,5.191,3.01,6.474l14.729,9.92c1.902,1.279,2.469,3.921,1.253,5.868l-9.377,15.078
		c-1.213,1.947-1.252,5.157-0.094,7.134l8.991,15.316c1.159,1.979,0.527,4.599-1.407,5.828l-14.993,9.513
		c-1.935,1.229-3.367,4.105-3.185,6.388L612.098,160.094z"/>
	<linearGradient id="SVGID_14_" gradientUnits="userSpaceOnUse" x1="533.2988" y1="17.7783" x2="536.4916" y2="194.9674">
		<stop  offset="0" style="stop-color:#970100"/>
		<stop  offset="0.1136" style="stop-color:#AA0100"/>
		<stop  offset="0.2364" style="stop-color:#C40101"/>
		<stop  offset="0.3818" style="stop-color:#DD0D11"/>
		<stop  offset="0.5636" style="stop-color:#F03038"/>
		<stop  offset="0.6437" style="stop-color:#DD2127"/>
		<stop  offset="0.8364" style="stop-color:#B20101"/>
		<stop  offset="0.957" style="stop-color:#900001"/>
	</linearGradient>
	<path fill="url(#SVGID_14_)" d="M620.738,100.639c0,47.466-38.479,85.945-85.948,85.945c-47.465,0-85.944-38.479-85.944-85.945
		c0-47.467,38.479-85.946,85.944-85.946C582.26,14.693,620.738,53.172,620.738,100.639z"/>
</g>
<g>
	<g>
		<defs>
			<rect id="SVGID_15_" x="497.588" y="48.827" width="74.412" height="103.622"/>
		</defs>
		<clipPath id="SVGID_16_">
			<use xlink:href="#SVGID_15_"  overflow="visible"/>
		</clipPath>
		<g clip-path="url(#SVGID_16_)">
			<defs>
				<rect id="SVGID_17_" x="492.937" y="43.932" width="83.713" height="113.168"/>
			</defs>
			<clipPath id="SVGID_18_">
				<use xlink:href="#SVGID_17_"  overflow="visible"/>
			</clipPath>
			
				<rect x="497.588" y="48.827" clip-path="url(#SVGID_18_)" fill-rule="evenodd" clip-rule="evenodd" fill="#FFFFFF" width="74.412" height="103.622"/>
			<path clip-path="url(#SVGID_18_)" fill="#005BAA" d="M569.863,50.944h-70.14v99.388h70.14V50.944z M498.656,48.827h72.276H572
				v1.059v101.505v1.059h-1.067h-72.276h-1.068v-1.059V49.886v-1.059H498.656z"/>
			
				<rect x="501.667" y="52.898" clip-path="url(#SVGID_18_)" fill-rule="evenodd" clip-rule="evenodd" fill="#005BAA" width="66.253" height="84.319"/>
			<path clip-path="url(#SVGID_18_)" fill-rule="evenodd" clip-rule="evenodd" fill="#FFFFFF" d="M514.815,117.338
				c-17.173-24.128,25.528-53.652,40.572-61.689c3.802,15.356,10.951,74.113-22.282,67.509c24.93-5.455,23.416-41.848,21.45-64.683
				C535.736,70.56,510.472,92.696,514.815,117.338"/>
			<path clip-path="url(#SVGID_18_)" fill-rule="evenodd" clip-rule="evenodd" fill="#FFFFFF" d="M521.814,111.034
				c2.891-0.5,6.883-2.127,9.194-6.968c2.39-5.116-1.463-12.881,0.22-16.114c1.467-2.856,4.586-4.831,8.592-6.881
				c-3.811,0.5-9.176,2.546-11.865,7.568c-2.143,4.706,1.072,9.118,0.489,14.36C527.844,106.44,524.944,109.318,521.814,111.034"/>
			<path clip-path="url(#SVGID_18_)" fill-rule="evenodd" clip-rule="evenodd" fill="#FFFFFF" d="M532.615,114.245
				c2.891-0.497,6.885-2.125,9.195-6.967c2.389-5.116-1.464-12.88,0.217-16.115c1.469-2.855,4.588-4.829,8.594-6.88
				c-3.81,0.499-9.178,2.546-11.864,7.569c-2.144,4.704,1.071,9.118,0.488,14.358C538.646,109.652,535.745,112.53,532.615,114.245"
				/>
			<path clip-path="url(#SVGID_18_)" fill-rule="evenodd" clip-rule="evenodd" fill="#FFFFFF" d="M517.449,119.087
				c3.123,4.014,7.266,5.067,12.11,4.095c-1.246,2.336-3.802,3.524-6.648,3.149l-4.389,6.094l-1.249-0.445l2.021-6.72
				C517.775,122.98,517.089,121.217,517.449,119.087"/>
			<path clip-path="url(#SVGID_18_)" fill="#005BAA" d="M565.762,143.165c0.057-0.155,0.097-0.285,0.12-0.386
				c0.022-0.099,0.033-0.188,0.033-0.267c0-0.271-0.078-0.471-0.23-0.602c-0.153-0.128-0.388-0.193-0.703-0.193
				c-0.368,0-0.66,0.109-0.878,0.329c-0.217,0.221-0.397,0.592-0.542,1.118H565.762z M566.39,144.185h-3.105
				c-0.077,0.299-0.132,0.539-0.165,0.722c-0.031,0.183-0.048,0.323-0.048,0.426c0,0.315,0.103,0.537,0.306,0.662
				c0.206,0.128,0.568,0.191,1.089,0.191c0.718,0,1.219-0.048,1.506-0.145c0.285-0.097,0.468-0.263,0.548-0.497h0.239
				c-0.065,0.42-0.141,0.757-0.225,1.013c-0.084,0.257-0.181,0.44-0.292,0.552c-0.167,0.172-0.369,0.294-0.602,0.367
				c-0.235,0.071-0.65,0.107-1.248,0.107h-0.143c-1.179,0-1.975-0.135-2.387-0.405c-0.411-0.271-0.617-0.757-0.617-1.458
				c0-0.262,0.053-0.647,0.157-1.155c0.105-0.508,0.265-1.155,0.482-1.942c0.073-0.267,0.166-0.512,0.276-0.736
				c0.109-0.227,0.233-0.422,0.368-0.586c0.256-0.297,0.574-0.516,0.963-0.649c0.387-0.137,0.899-0.203,1.539-0.203
				c0.91,0,1.564,0.139,1.968,0.417c0.4,0.279,0.602,0.729,0.602,1.347c0,0.23-0.025,0.468-0.077,0.718
				c-0.051,0.247-0.118,0.465-0.2,0.654c-0.106,0.232-0.226,0.392-0.36,0.476C566.832,144.143,566.639,144.185,566.39,144.185z
				 M557.186,140.522h1.862c0.139,0,0.245,0.029,0.318,0.086c0.074,0.057,0.111,0.144,0.111,0.256c0,0.021-0.004,0.053-0.013,0.093
				c-0.008,0.041-0.018,0.086-0.031,0.136l-0.086,0.409c0.258-0.384,0.491-0.642,0.695-0.778c0.204-0.134,0.46-0.201,0.769-0.201
				h0.953l-0.135,0.632c-0.08,0.322-0.172,0.526-0.277,0.612c-0.106,0.086-0.302,0.128-0.585,0.128h-0.688
				c-0.267,0-0.486,0.073-0.665,0.223c-0.177,0.146-0.298,0.359-0.367,0.644l-0.936,3.893c-0.004,0.017-0.011,0.042-0.019,0.08
				c-0.02,0.09-0.029,0.15-0.029,0.185c0,0.106,0.035,0.188,0.106,0.247c0.071,0.062,0.172,0.091,0.298,0.091l-0.035,0.239h-1.765
				c-0.134,0-0.24-0.038-0.316-0.111c-0.075-0.074-0.113-0.177-0.113-0.307c0-0.033,0.002-0.071,0.009-0.117
				c0.006-0.044,0.017-0.093,0.027-0.141l1.296-5.451c0.013-0.057,0.021-0.097,0.023-0.12c0.002-0.023,0.002-0.046,0.002-0.071
				c0-0.108-0.038-0.197-0.111-0.267c-0.073-0.067-0.188-0.115-0.351-0.148L557.186,140.522z M554.11,142.635
				c0-0.283-0.086-0.501-0.256-0.659c-0.17-0.155-0.411-0.232-0.728-0.232c-0.323,0-0.583,0.086-0.781,0.256
				c-0.194,0.17-0.362,0.461-0.503,0.875c-0.176,0.532-0.318,1.043-0.426,1.528c-0.109,0.484-0.163,0.808-0.163,0.968
				c0,0.291,0.09,0.52,0.271,0.684s0.43,0.245,0.749,0.245c0.308,0,0.558-0.086,0.75-0.258c0.191-0.172,0.356-0.464,0.497-0.873
				c0.177-0.541,0.319-1.051,0.427-1.524C554.056,143.167,554.11,142.832,554.11,142.635z M549.341,145.838
				c0-0.111,0.017-0.279,0.053-0.506c0.033-0.225,0.085-0.512,0.157-0.859c0.15-0.705,0.313-1.318,0.488-1.838
				c0.174-0.521,0.334-0.881,0.482-1.083c0.311-0.408,0.658-0.697,1.04-0.865c0.385-0.168,0.919-0.252,1.603-0.252
				c0.894,0,1.586,0.149,2.081,0.444c0.493,0.298,0.74,0.714,0.74,1.246c0,0.237-0.022,0.497-0.067,0.78
				c-0.046,0.283-0.132,0.684-0.258,1.204l-0.006,0.013c-0.235,0.967-0.447,1.645-0.641,2.027c-0.257,0.525-0.602,0.896-1.028,1.11
				c-0.429,0.216-1.075,0.323-1.941,0.323c-0.852,0-1.514-0.156-1.99-0.464C549.577,146.809,549.341,146.383,549.341,145.838z
				 M547.237,139.302h0.779l-0.289,1.221h1.787l-0.166,0.785c-0.035,0.171-0.096,0.287-0.181,0.348
				c-0.083,0.059-0.232,0.088-0.444,0.088h-0.602c-0.267,0-0.458,0.04-0.568,0.12c-0.113,0.079-0.197,0.232-0.25,0.457l-0.757,3.085
				c-0.023,0.102-0.04,0.183-0.048,0.239c-0.009,0.057-0.015,0.109-0.02,0.153c0,0.145,0.04,0.254,0.117,0.327
				c0.078,0.073,0.191,0.111,0.338,0.111h0.579c0.289,0,0.516-0.049,0.676-0.143c0.159-0.095,0.287-0.252,0.382-0.475h0.252
				l-0.425,1.433c-0.046,0.16-0.139,0.274-0.276,0.343c-0.141,0.066-0.363,0.101-0.672,0.101h-2.065
				c-0.275,0-0.49-0.078-0.652-0.233c-0.159-0.155-0.239-0.363-0.239-0.621c0-0.048,0.005-0.108,0.015-0.178
				c0.011-0.069,0.027-0.153,0.046-0.252l1.072-4.468h-0.665l0.229-0.927c0.475-0.064,0.884-0.223,1.225-0.475
				C546.759,140.093,547.031,139.744,547.237,139.302z M541.493,138.773h2.582l-0.19,0.897c-0.038,0.174-0.104,0.302-0.203,0.387
				c-0.099,0.083-0.233,0.125-0.401,0.125h-1.449c-0.316,0-0.568,0.103-0.757,0.307c-0.188,0.205-0.283,0.476-0.283,0.811
				c0,0.129,0.044,0.239,0.132,0.339c0.089,0.098,0.241,0.201,0.46,0.308l1.309,0.626c0.356,0.168,0.617,0.385,0.782,0.654
				c0.166,0.269,0.25,0.605,0.25,1.011c0,1.036-0.256,1.839-0.768,2.406c-0.515,0.568-1.24,0.852-2.184,0.852h-1.836
				c-0.47,0-0.784-0.036-0.941-0.107c-0.157-0.073-0.237-0.201-0.237-0.386c0-0.036,0.007-0.097,0.02-0.185
				c0.004-0.02,0.006-0.034,0.006-0.042l0.265-1.131h0.22c0.017,0.185,0.071,0.314,0.162,0.391c0.092,0.075,0.253,0.112,0.481,0.112
				h1.476c0.463,0,0.838-0.144,1.128-0.433s0.434-0.659,0.434-1.115c0-0.172-0.045-0.316-0.136-0.432
				c-0.091-0.117-0.237-0.221-0.442-0.311l-1.513-0.665c-0.294-0.134-0.507-0.314-0.642-0.541c-0.132-0.225-0.199-0.524-0.199-0.897
				c0-0.925,0.221-1.653,0.66-2.184C540.117,139.039,540.724,138.773,541.493,138.773z M530.286,140.522h1.863
				c0.139,0,0.245,0.029,0.318,0.086s0.111,0.144,0.111,0.256c0,0.021-0.004,0.053-0.013,0.093
				c-0.008,0.041-0.019,0.086-0.031,0.136l-0.086,0.409c0.258-0.384,0.49-0.642,0.694-0.778c0.205-0.134,0.461-0.201,0.77-0.201
				h0.952l-0.134,0.632c-0.08,0.322-0.172,0.526-0.277,0.612c-0.107,0.086-0.302,0.128-0.585,0.128h-0.688
				c-0.266,0-0.485,0.073-0.664,0.223c-0.177,0.146-0.298,0.359-0.367,0.644l-0.936,3.893c-0.005,0.017-0.011,0.042-0.019,0.08
				c-0.02,0.09-0.029,0.15-0.029,0.185c0,0.106,0.035,0.188,0.106,0.247c0.071,0.062,0.172,0.091,0.298,0.091l-0.035,0.239h-1.765
				c-0.134,0-0.241-0.038-0.316-0.111c-0.076-0.074-0.113-0.177-0.113-0.307c0-0.033,0.002-0.071,0.008-0.117
				c0.006-0.044,0.017-0.093,0.027-0.141l1.296-5.451c0.013-0.057,0.021-0.097,0.023-0.12s0.002-0.046,0.002-0.071
				c0-0.108-0.038-0.197-0.111-0.267c-0.074-0.067-0.189-0.115-0.351-0.148L530.286,140.522z M527.272,143.165
				c0.056-0.155,0.097-0.285,0.119-0.386c0.023-0.099,0.034-0.188,0.034-0.267c0-0.271-0.078-0.471-0.231-0.602
				c-0.153-0.128-0.388-0.193-0.703-0.193c-0.369,0-0.66,0.109-0.879,0.329c-0.216,0.221-0.396,0.592-0.541,1.118H527.272z
				 M527.9,144.185h-3.104c-0.078,0.299-0.132,0.539-0.166,0.722c-0.031,0.183-0.048,0.323-0.048,0.426
				c0,0.315,0.103,0.537,0.306,0.662c0.207,0.128,0.569,0.191,1.089,0.191c0.717,0,1.218-0.048,1.505-0.145
				c0.286-0.097,0.468-0.263,0.547-0.497h0.239c-0.065,0.42-0.141,0.757-0.224,1.013c-0.084,0.257-0.18,0.44-0.292,0.552
				c-0.168,0.172-0.369,0.294-0.602,0.367c-0.235,0.071-0.65,0.107-1.248,0.107h-0.143c-1.179,0-1.974-0.135-2.387-0.405
				c-0.412-0.271-0.617-0.757-0.617-1.458c0-0.262,0.052-0.647,0.157-1.155s0.265-1.155,0.483-1.942
				c0.073-0.267,0.165-0.512,0.276-0.736c0.109-0.227,0.233-0.422,0.368-0.586c0.256-0.297,0.575-0.516,0.962-0.649
				c0.388-0.137,0.9-0.203,1.54-0.203c0.91,0,1.565,0.139,1.968,0.417c0.4,0.279,0.602,0.729,0.602,1.347
				c0,0.23-0.025,0.468-0.078,0.718c-0.051,0.247-0.118,0.465-0.2,0.654c-0.106,0.232-0.227,0.392-0.36,0.476
				C528.342,144.143,528.149,144.185,527.9,144.185z M518.352,146.198c0.335,0,0.621-0.065,0.853-0.197
				c0.233-0.13,0.401-0.316,0.504-0.558c0.094-0.219,0.216-0.623,0.363-1.217c0.04-0.155,0.071-0.274,0.093-0.356l0.019-0.073
				c0.146-0.586,0.22-0.963,0.22-1.131c0-0.267-0.08-0.47-0.238-0.609c-0.157-0.142-0.385-0.213-0.683-0.213
				c-0.332,0-0.592,0.084-0.781,0.252c-0.188,0.167-0.329,0.446-0.423,0.835l-0.806,3.268H518.352z M518.868,147.495h-1.714
				l-0.228,0.948c-0.015,0.061-0.027,0.116-0.036,0.169c-0.008,0.051-0.013,0.099-0.013,0.145c0,0.117,0.04,0.214,0.12,0.287
				c0.08,0.076,0.191,0.12,0.335,0.138l-0.038,0.226h-1.713c-0.153,0-0.275-0.037-0.361-0.113c-0.085-0.075-0.128-0.185-0.128-0.323
				c0-0.017,0.002-0.037,0.007-0.064c0.004-0.025,0.013-0.065,0.025-0.12l1.766-7.416c0.013-0.057,0.021-0.107,0.027-0.151
				c0.007-0.042,0.009-0.079,0.009-0.113c0-0.091-0.027-0.161-0.086-0.214c-0.056-0.055-0.148-0.097-0.274-0.13l0.06-0.239h1.727
				c0.138,0,0.241,0.027,0.304,0.08c0.063,0.052,0.094,0.136,0.094,0.252c0,0.037-0.001,0.07-0.006,0.101
				c-0.004,0.03-0.01,0.063-0.017,0.096l-0.073,0.296c0.253-0.338,0.505-0.57,0.759-0.703c0.252-0.131,0.585-0.196,1.005-0.196
				c0.675,0,1.158,0.113,1.449,0.337c0.292,0.227,0.436,0.596,0.436,1.112c0,0.21-0.027,0.472-0.079,0.786
				c-0.055,0.316-0.143,0.736-0.271,1.261c-0.13,0.524-0.247,0.952-0.348,1.288c-0.099,0.333-0.199,0.61-0.298,0.83
				c-0.208,0.485-0.513,0.844-0.915,1.08C519.99,147.377,519.482,147.495,518.868,147.495z M509.307,140.522h1.721
				c0.151,0,0.266,0.035,0.346,0.106c0.08,0.072,0.12,0.173,0.12,0.299c0,0.033-0.002,0.066-0.008,0.104
				c-0.007,0.038-0.015,0.078-0.028,0.122l-1.045,4.383c-0.012,0.062-0.021,0.105-0.023,0.133c-0.001,0.024-0.001,0.052-0.001,0.075
				c0,0.189,0.063,0.331,0.19,0.426c0.126,0.095,0.314,0.141,0.564,0.141c0.365,0,0.673-0.084,0.925-0.25
				c0.253-0.166,0.413-0.392,0.482-0.679l1.009-4.013c0.013-0.057,0.021-0.107,0.027-0.151c0.006-0.042,0.011-0.079,0.011-0.113
				c0-0.111-0.034-0.195-0.097-0.256c-0.063-0.059-0.157-0.088-0.279-0.088l0.049-0.239h1.709c0.13,0,0.235,0.038,0.313,0.113
				c0.078,0.075,0.118,0.179,0.118,0.305c0,0.037-0.002,0.077-0.009,0.123c-0.006,0.044-0.017,0.097-0.029,0.153l-1.296,5.438
				c-0.013,0.048-0.021,0.095-0.027,0.137c-0.006,0.044-0.008,0.086-0.008,0.126c0,0.09,0.027,0.161,0.086,0.212
				c0.056,0.05,0.157,0.092,0.3,0.126l-0.061,0.239h-1.801c-0.143,0-0.248-0.029-0.313-0.087c-0.064-0.056-0.098-0.145-0.098-0.265
				c0-0.043,0.006-0.106,0.019-0.187c0.012-0.079,0.038-0.209,0.079-0.388c-0.3,0.351-0.6,0.602-0.902,0.751
				c-0.304,0.149-0.667,0.225-1.088,0.225c-0.593,0-1.044-0.084-1.356-0.252c-0.311-0.168-0.466-0.415-0.466-0.742
				c0-0.044,0.004-0.094,0.013-0.146c0.008-0.055,0.017-0.105,0.029-0.153l1.167-4.855c0.008-0.038,0.015-0.073,0.017-0.111
				c0.004-0.038,0.006-0.089,0.006-0.153c0-0.11-0.035-0.197-0.109-0.262c-0.073-0.063-0.174-0.1-0.302-0.107L509.307,140.522z
				 M505.563,138.773h2.582l-0.19,0.897c-0.038,0.174-0.105,0.302-0.204,0.387c-0.098,0.083-0.233,0.125-0.4,0.125h-1.449
				c-0.317,0-0.569,0.103-0.757,0.307c-0.188,0.205-0.284,0.476-0.284,0.811c0,0.129,0.044,0.239,0.133,0.339
				c0.088,0.098,0.241,0.201,0.459,0.308l1.309,0.626c0.357,0.168,0.617,0.385,0.783,0.654c0.166,0.269,0.25,0.605,0.25,1.011
				c0,1.036-0.256,1.839-0.768,2.406c-0.514,0.568-1.24,0.852-2.183,0.852h-1.835c-0.47,0-0.785-0.036-0.942-0.107
				c-0.157-0.073-0.237-0.201-0.237-0.386c0-0.036,0.006-0.097,0.019-0.185c0.004-0.02,0.006-0.034,0.006-0.042l0.265-1.131h0.221
				c0.016,0.185,0.071,0.314,0.161,0.391c0.093,0.075,0.254,0.112,0.482,0.112h1.475c0.464,0,0.839-0.144,1.128-0.433
				c0.29-0.289,0.435-0.659,0.435-1.115c0-0.172-0.046-0.316-0.136-0.432c-0.09-0.117-0.237-0.221-0.443-0.311l-1.512-0.665
				c-0.294-0.134-0.507-0.314-0.642-0.541c-0.132-0.225-0.199-0.524-0.199-0.897c0-0.925,0.22-1.653,0.66-2.184
				C504.188,139.039,504.793,138.773,505.563,138.773z"/>
		</g>
	</g>
</g>
<g>
	<g>
		<path fill="#FFE349" d="M151.758,101.098h-1.493v10.718h-3.256v-10.718h-2.755c-1.099,0-1.886,0.24-2.363,0.719
			c-0.478,0.479-0.716,1.145-0.716,1.995c0.36-0.326,0.908-0.488,1.646-0.488c0.126,0,0.238,0,0.337,0
			c0.099,0,0.256,0.036,0.472,0.108c0.792,0.199,1.39,0.665,1.794,1.397c0.404,0.732,0.607,1.642,0.607,2.727
			c0,1.52-0.425,2.65-1.275,3.392c-0.651,0.579-1.465,0.868-2.442,0.868c-1.32,0-2.315-0.362-2.984-1.085
			c-0.941-1.013-1.411-2.839-1.411-5.481c0-2.225,0.57-3.925,1.709-5.101c1.067-1.085,2.532-1.628,4.396-1.628h7.733V101.098z
			 M143.021,107.61c0-0.633-0.098-1.067-0.294-1.303c-0.196-0.235-0.463-0.353-0.802-0.353c-0.25,0-0.5,0.045-0.749,0.136
			c0,1.14,0.049,1.922,0.147,2.347c0.098,0.425,0.387,0.638,0.869,0.638c0.32,0,0.539-0.118,0.655-0.353
			C142.962,108.488,143.021,108.117,143.021,107.61z"/>
		<path fill="#FFE349" d="M175.826,101.098h-1.655v10.718h-3.256v-10.718h-1.129c-0.861,0-1.47,0.136-1.829,0.407
			c0.452,0.453,0.832,1.004,1.14,1.655c0.489,1.031,0.733,2.18,0.733,3.446c0,1.881-0.434,3.283-1.303,4.206
			c-0.724,0.76-1.673,1.14-2.849,1.14c-0.959,0-1.791-0.407-2.497-1.221c-0.868-1.013-1.302-2.451-1.302-4.314
			c0-0.724,0.212-1.61,0.638-2.659c0.425-1.049,0.8-1.673,1.126-1.873c-0.237-0.199-0.638-0.38-1.203-0.542
			c-0.564-0.163-1.285-0.244-2.159-0.244c-1.166,0-2.159,0.281-2.979,0.841c-0.82,0.561-1.266,1.185-1.339,1.873
			c0.402-0.326,0.942-0.488,1.619-0.488c0.128,0,0.242,0,0.343,0c0.101,0,0.26,0.036,0.48,0.108
			c0.823,0.199,1.445,0.665,1.865,1.397c0.421,0.732,0.631,1.642,0.631,2.727c0,1.52-0.425,2.65-1.275,3.392
			c-0.651,0.579-1.456,0.868-2.415,0.868c-1.212,0-2.171-0.362-2.876-1.085c-0.977-1.013-1.465-2.722-1.465-5.128
			c0-1.971,0.665-3.658,1.995-5.06s3.08-2.103,5.25-2.103c1.628,0,2.921,0.172,3.88,0.516c0.452,0.163,0.94,0.434,1.465,0.814
			c0.669-0.434,1.307-0.75,1.913-0.95c0.605-0.199,1.361-0.298,2.266-0.298h6.187V101.098z M157.89,107.61
			c0-0.47-0.082-0.864-0.244-1.181c-0.163-0.316-0.471-0.475-0.923-0.475c-0.253,0-0.506,0.045-0.76,0.136
			c0,1.104,0.059,1.877,0.177,2.32c0.117,0.443,0.42,0.665,0.909,0.665c0.326,0,0.547-0.118,0.665-0.353
			C157.831,108.488,157.89,108.117,157.89,107.61z M167.387,94.586c0,0.669-0.23,1.234-0.692,1.696
			c-0.461,0.461-1.027,0.692-1.696,0.692c-0.651,0-1.208-0.23-1.668-0.692c-0.461-0.461-0.692-1.026-0.692-1.696
			c0-0.651,0.226-1.212,0.678-1.683c0.452-0.47,1.013-0.705,1.682-0.705c0.669,0,1.235,0.23,1.696,0.692
			C167.156,93.351,167.387,93.917,167.387,94.586z M166.898,106.402c0-0.738-0.1-1.391-0.298-1.958
			c-0.199-0.567-0.443-1.013-0.732-1.337c-0.217,0.198-0.444,0.604-0.679,1.216c-0.29,0.756-0.434,1.495-0.434,2.215
			c0,0.811,0.09,1.486,0.271,2.026c0.181,0.541,0.47,0.811,0.868,0.811c0.326,0,0.574-0.297,0.746-0.892
			C166.813,107.888,166.898,107.195,166.898,106.402z"/>
		<path fill="#FFE349" d="M200.056,101.098h-1.655v10.718h-3.256v-10.718h-1.129c-0.861,0-1.47,0.136-1.829,0.407
			c0.452,0.453,0.832,1.004,1.14,1.655c0.489,1.031,0.733,2.18,0.733,3.446c0,1.881-0.434,3.283-1.303,4.206
			c-0.724,0.76-1.673,1.14-2.849,1.14c-0.959,0-1.791-0.407-2.497-1.221c-0.868-1.013-1.302-2.451-1.302-4.314
			c0-0.724,0.212-1.61,0.638-2.659c0.425-1.049,0.8-1.673,1.126-1.873c-0.237-0.199-0.638-0.38-1.203-0.542
			c-0.564-0.163-1.285-0.244-2.159-0.244c-1.166,0-2.159,0.281-2.979,0.841c-0.82,0.561-1.266,1.185-1.339,1.873
			c0.402-0.326,0.942-0.488,1.619-0.488c0.128,0,0.242,0,0.343,0c0.101,0,0.26,0.036,0.48,0.108
			c0.823,0.199,1.445,0.665,1.865,1.397c0.421,0.732,0.631,1.642,0.631,2.727c0,1.52-0.425,2.65-1.275,3.392
			c-0.651,0.579-1.456,0.868-2.415,0.868c-1.212,0-2.171-0.361-2.876-1.083c-0.977-1.011-1.465-2.717-1.465-5.118
			c0-1.968,0.665-3.651,1.995-5.051c1.33-1.399,3.08-2.099,5.25-2.099c1.628,0,2.921,0.168,3.88,0.505
			c0.452,0.159,0.94,0.425,1.465,0.797c0.669-0.434,1.307-0.75,1.913-0.95c0.605-0.199,1.361-0.298,2.266-0.298h6.187V101.098z
			 M182.121,107.61c0-0.47-0.082-0.864-0.244-1.181c-0.163-0.316-0.471-0.475-0.923-0.475c-0.253,0-0.506,0.045-0.76,0.136
			c0,1.104,0.059,1.877,0.177,2.32c0.117,0.443,0.42,0.665,0.909,0.665c0.326,0,0.547-0.118,0.665-0.353
			C182.062,108.488,182.121,108.117,182.121,107.61z M191.129,106.402c0-0.738-0.1-1.391-0.298-1.958
			c-0.199-0.567-0.443-1.013-0.732-1.337c-0.217,0.198-0.444,0.604-0.679,1.216c-0.29,0.756-0.434,1.495-0.434,2.215
			c0,0.811,0.09,1.486,0.271,2.026c0.181,0.541,0.47,0.811,0.868,0.811c0.326,0,0.574-0.297,0.746-0.892
			C191.043,107.888,191.129,107.195,191.129,106.402z"/>
		<path fill="#FFE349" d="M217.991,107.746c0.018,0.108,0.027,0.212,0.027,0.312s0,0.203,0,0.312c0,1.194-0.443,2.125-1.33,2.794
			c-0.76,0.58-1.646,0.869-2.659,0.869c-1.682,0-3.093-0.506-4.233-1.52c-1.61-1.429-2.415-3.708-2.415-6.838
			c0-3.147,0.795-5.436,2.388-6.865c1.157-1.031,2.578-1.547,4.26-1.547c1.031,0,1.917,0.281,2.659,0.841
			c0.886,0.669,1.33,1.619,1.33,2.849c0,0.253-0.009,0.452-0.027,0.597c-0.145,1.158-0.724,2.026-1.737,2.605
			c-0.796,0.452-1.691,0.678-2.686,0.678c-1.212,0-2.171-0.235-2.876-0.706c-0.054,0.235-0.091,0.489-0.108,0.76
			c-0.018,0.271-0.027,0.516-0.027,0.733c0,0.235,0.004,0.457,0.014,0.665c0.009,0.208,0.05,0.502,0.122,0.882
			c0.289-0.199,0.692-0.366,1.208-0.502s1.072-0.203,1.669-0.203c0.995,0,1.881,0.217,2.659,0.651
			C217.258,105.693,217.846,106.57,217.991,107.746z M215.224,99.334c0.145-0.434,0.039-0.778-0.315-1.031
			c-0.354-0.253-0.832-0.38-1.433-0.38c-0.456,0.037-0.938,0.263-1.448,0.678c-0.509,0.417-0.819,0.859-0.928,1.33
			c0.218,0.109,0.573,0.204,1.065,0.285c0.492,0.081,0.874,0.122,1.147,0.122c0.509,0,0.928-0.072,1.256-0.217
			C214.896,99.977,215.114,99.714,215.224,99.334z M215.196,107.963c-0.108-0.38-0.33-0.646-0.665-0.8
			c-0.335-0.154-0.756-0.231-1.262-0.231c-0.434,0-0.837,0.041-1.207,0.123c-0.371,0.081-0.692,0.186-0.963,0.312
			c0.126,0.47,0.434,0.914,0.922,1.33c0.489,0.416,0.968,0.642,1.438,0.678c0.651,0,1.108-0.113,1.371-0.339
			c0.262-0.226,0.394-0.493,0.394-0.8C215.224,108.108,215.214,108.017,215.196,107.963z"/>
		<path fill="#FFE349" d="M236.442,111.816h-8.737v-1.958c0.253-0.127,0.452-0.354,0.597-0.68c0.145-0.327,0.217-0.852,0.217-1.578
			v-2.693c0-0.998-0.227-1.841-0.681-2.53c-0.527-0.816-1.272-1.224-2.235-1.224c-1.018,0-1.799,0.313-2.344,0.94
			c-0.4,0.448-0.646,1.021-0.736,1.719c0.182-0.145,0.414-0.262,0.696-0.353c0.282-0.09,0.595-0.135,0.941-0.135
			c0.127,0,0.241,0,0.341,0s0.259,0.036,0.477,0.108c0.818,0.199,1.437,0.665,1.855,1.397c0.418,0.732,0.627,1.642,0.627,2.727
			c0,1.52-0.425,2.65-1.275,3.392c-0.651,0.579-1.465,0.868-2.442,0.868c-1.248,0-2.198-0.343-2.849-1.029
			c-0.977-1.029-1.465-2.843-1.465-5.443c0-1.986,0.579-3.628,1.737-4.928c1.157-1.3,2.623-1.95,4.396-1.95
			c2.243,0,3.916,0.771,5.02,2.313c0.795,1.106,1.194,2.376,1.194,3.808v1.959c0,0.853-0.109,1.514-0.326,1.986
			c-0.127,0.29-0.371,0.525-0.733,0.707h2.469V98.521h3.256V111.816z M224.449,107.61c0-0.633-0.109-1.067-0.326-1.303
			c-0.217-0.235-0.507-0.353-0.868-0.353c-0.235,0-0.479,0.045-0.733,0.136c0,1.104,0.059,1.877,0.176,2.32
			c0.118,0.443,0.412,0.665,0.882,0.665C224.159,109.076,224.449,108.587,224.449,107.61z"/>
		<path fill="#FFE349" d="M270.115,101.098h-1.628v10.718h-3.256v-10.718h-1.112c-0.905,0-1.538,0.126-1.899,0.38
			c0.47,0.471,0.859,1.024,1.167,1.659c0.506,1.034,0.76,2.186,0.76,3.455c0,1.887-0.434,3.292-1.303,4.217
			c-0.724,0.762-1.673,1.143-2.849,1.143c-0.977,0-1.818-0.407-2.523-1.221c-0.868-1.013-1.302-2.451-1.302-4.314
			c0-0.706,0.23-1.578,0.692-2.619c0.461-1.04,0.854-1.678,1.18-1.913c-0.344-0.28-0.588-0.454-0.732-0.524
			c-0.398-0.174-1.004-0.262-1.818-0.262c-0.489,0-0.896,0.021-1.221,0.063s-0.651,0.147-0.977,0.316
			c0.435,0.416,0.814,0.968,1.14,1.655c0.489,1.031,0.733,2.189,0.733,3.473c0,1.881-0.434,3.283-1.303,4.206
			c-0.724,0.76-1.673,1.14-2.849,1.14c-0.959,0-1.791-0.407-2.497-1.221c-0.868-1.013-1.302-2.451-1.302-4.314
			c0-0.76,0.212-1.673,0.638-2.741c0.425-1.067,0.827-1.691,1.207-1.872c-0.47-0.47-1.646-0.706-3.527-0.706
			c-1.067,0-2.012,0.271-2.835,0.814c-0.823,0.542-1.271,1.176-1.343,1.899c0.398-0.326,0.932-0.488,1.601-0.488
			c0.126,0,0.24,0,0.339,0c0.099,0,0.258,0.036,0.475,0.108c0.814,0.199,1.429,0.665,1.845,1.397
			c0.416,0.732,0.624,1.642,0.624,2.727c0,1.52-0.425,2.65-1.275,3.392c-0.651,0.579-1.456,0.868-2.415,0.868
			c-1.267,0-2.225-0.343-2.876-1.031c-0.977-1.013-1.465-2.831-1.465-5.454c0-1.917,0.787-3.572,2.361-4.966
			c1.501-1.32,3.175-1.98,5.02-1.98c1.483,0,2.704,0.172,3.663,0.516c0.561,0.199,1.076,0.488,1.547,0.868
			c0.832-0.488,1.578-0.818,2.239-0.99c0.66-0.172,1.333-0.258,2.021-0.258c1.375,0,2.496,0.163,3.364,0.488
			c0.38,0.145,0.823,0.398,1.33,0.76c0.688-0.434,1.334-0.75,1.94-0.95c0.605-0.199,1.352-0.298,2.238-0.298h6.187V101.098z
			 M243.225,107.61c0-0.47-0.08-0.864-0.237-1.181c-0.159-0.316-0.457-0.475-0.896-0.475c-0.246,0-0.493,0.045-0.739,0.136
			c0,1.104,0.057,1.877,0.171,2.32c0.115,0.443,0.409,0.665,0.884,0.665c0.316,0,0.531-0.118,0.646-0.353
			C243.168,108.488,243.225,108.117,243.225,107.61z M252.233,106.401c0-0.811-0.077-1.481-0.23-2.013
			c-0.154-0.531-0.412-1.049-0.773-1.554c-0.398,0.577-0.669,1.054-0.814,1.432c-0.217,0.559-0.326,1.226-0.326,2
			c0,0.829,0.09,1.554,0.271,2.175c0.181,0.622,0.47,0.933,0.868,0.933c0.326,0,0.574-0.297,0.746-0.892
			C252.147,107.888,252.233,107.194,252.233,106.401z M257.416,94.586c0,0.651-0.226,1.212-0.678,1.682
			c-0.453,0.471-1.013,0.706-1.682,0.706c-0.669,0-1.235-0.23-1.696-0.692c-0.461-0.461-0.692-1.026-0.692-1.696
			c0-0.669,0.231-1.235,0.692-1.696c0.461-0.461,1.027-0.692,1.696-0.692c0.669,0,1.229,0.226,1.682,0.678
			C257.19,93.329,257.416,93.898,257.416,94.586z M261.188,106.402c0-1.477-0.334-2.621-1.004-3.432
			c-0.217,0.199-0.443,0.622-0.678,1.27c-0.29,0.792-0.434,1.558-0.434,2.296c0,0.847,0.085,1.531,0.258,2.054
			c0.172,0.522,0.457,0.784,0.854,0.784c0.326,0,0.574-0.297,0.747-0.892C261.102,107.888,261.188,107.195,261.188,106.402z"/>
		<path fill="#FFE349" d="M286.666,102.78h-3.256v-1.411c0-1.157-0.235-2.198-0.706-3.12c-0.724-1.411-1.872-2.117-3.446-2.117
			c-1.411,0-2.497,0.579-3.256,1.737c-0.94,1.447-1.411,3.862-1.411,7.245c0,2.858,0.33,5.065,0.99,6.621
			c0.66,1.556,1.668,2.333,3.025,2.333c1.085,0,1.954-0.353,2.605-1.058c0.76-0.832,1.14-2.116,1.14-3.853
			c0-1.013-0.118-1.818-0.353-2.415c-0.235-0.597-0.525-0.895-0.868-0.895c-0.344,0-0.583,0.059-0.719,0.176
			c-0.135,0.118-0.23,0.303-0.285,0.556v5.183h-3.256V98.521h3.256v5.617c0.108-0.199,0.217-0.344,0.326-0.434
			c0.326-0.29,0.787-0.435,1.384-0.435c0.995,0,1.804,0.57,2.428,1.709c0.625,1.14,0.937,2.506,0.937,4.098
			c0,2.713-0.769,4.766-2.307,6.159c-1.212,1.085-2.632,1.628-4.26,1.628c-1.972,0-3.591-0.787-4.857-2.361
			c-1.628-2.026-2.442-5.156-2.442-9.389c0-3.998,0.805-7.055,2.415-9.171c1.411-1.845,3.229-2.768,5.454-2.768
			c2.333,0,4.196,0.905,5.589,2.713c1.248,1.628,1.872,3.582,1.872,5.861V102.78z"/>
		<path fill="#FFE349" d="M302.269,104.992c0,2.527-0.489,4.314-1.465,5.361c-0.869,0.939-2.234,1.408-4.097,1.408h-8.466V98.521
			h3.256v10.664h1.981v-6.306c0-1.317,0.343-2.364,1.031-3.14c0.76-0.848,1.836-1.272,3.229-1.272c1.429,0,2.523,0.506,3.283,1.517
			C301.852,101.084,302.269,102.753,302.269,104.992z M296.326,94.586c0,0.651-0.227,1.212-0.679,1.682
			c-0.452,0.471-1.013,0.706-1.682,0.706c-0.669,0-1.235-0.23-1.696-0.692c-0.461-0.461-0.692-1.026-0.692-1.696
			c0-0.669,0.23-1.235,0.692-1.696c0.461-0.461,1.026-0.692,1.696-0.692c0.651,0,1.208,0.23,1.669,0.692
			C296.095,93.351,296.326,93.917,296.326,94.586z M298.822,105.101v-0.703c0-1.352-0.086-2.231-0.258-2.637
			c-0.172-0.405-0.448-0.608-0.828-0.608c-0.344,0-0.597,0.162-0.76,0.487c-0.163,0.325-0.244,0.82-0.244,1.487v6.058
			c0.76,0,1.298-0.239,1.615-0.717C298.664,107.99,298.822,106.867,298.822,105.101z"/>
		<path fill="#FFE349" d="M324.735,111.762h-11.484c-0.903,0-1.598-0.108-2.086-0.326c-0.885-0.38-1.327-1.085-1.327-2.116
			c0-0.814,0.284-1.397,0.852-1.75c0.568-0.353,1.276-0.529,2.124-0.529h2.868c2.507,0,3.761-1.076,3.761-3.229
			c0-0.923-0.312-1.669-0.937-2.239c-0.624-0.57-1.424-0.854-2.401-0.854c-0.561,0-1.013,0.05-1.356,0.149
			c-0.344,0.1-0.643,0.303-0.896,0.611h1.938c0.801,0,1.46,0.222,1.979,0.665c0.518,0.443,0.778,1.018,0.778,1.723
			c0,0.941-0.481,1.61-1.443,2.008c-0.653,0.271-1.506,0.407-2.558,0.407c-1.252,0-2.296-0.253-3.13-0.76
			c-1.053-0.633-1.579-1.592-1.579-2.876c0-1.411,0.696-2.523,2.089-3.337c1.157-0.669,2.496-1.004,4.016-1.004
			c1.99,0,3.626,0.443,4.911,1.33c1.465,1.013,2.198,2.406,2.198,4.179c0,1.863-0.651,3.229-1.954,4.097
			c-1.104,0.724-2.614,1.085-4.531,1.085h-1.98h-0.516c-0.471,0-0.706,0.136-0.706,0.407c0,0.145,0.077,0.254,0.23,0.326
			c0.154,0.073,0.466,0.108,0.936,0.108h10.203V111.762z M315.292,103.73c0-0.326-0.104-0.538-0.312-0.638
			c-0.208-0.099-0.529-0.149-0.963-0.149h-0.733c0,0.633,0.145,1.085,0.434,1.356c0.199,0.181,0.434,0.271,0.706,0.271
			c0.253,0,0.461-0.063,0.624-0.19C315.211,104.255,315.292,104.038,315.292,103.73z"/>
		<path fill="#FFE349" d="M343.267,111.762h-12.536v-2.578h2.659c0.832,0,1.456-0.308,1.872-0.923
			c0.344-0.506,0.516-1.112,0.516-1.818c0-0.47-0.062-0.841-0.187-1.112c-0.178-0.38-0.455-0.57-0.829-0.57
			c-0.214,0-0.388,0.077-0.521,0.23c-0.134,0.154-0.219,0.321-0.254,0.502v2.741h-3.256v-7.136h-1.574v10.664h-3.256V98.521h11.776
			v2.578h-3.69v1.954c0.216-0.308,0.485-0.516,0.809-0.624c0.324-0.109,0.639-0.163,0.945-0.163c1.007,0,1.79,0.389,2.347,1.167
			c0.486,0.688,0.729,1.556,0.729,2.605c0,0.814-0.172,1.542-0.516,2.184c-0.344,0.643-0.706,0.963-1.085,0.963h2.795V98.521h3.256
			V111.762z M336.456,94.586c0,0.651-0.226,1.212-0.678,1.682c-0.452,0.471-1.013,0.706-1.682,0.706
			c-0.669,0-1.235-0.23-1.696-0.692c-0.461-0.461-0.692-1.026-0.692-1.696c0-0.669,0.23-1.235,0.692-1.696
			c0.461-0.461,1.026-0.692,1.696-0.692c0.651,0,1.208,0.23,1.668,0.692C336.226,93.351,336.456,93.917,336.456,94.586z"/>
		<path fill="#FFE349" d="M360.66,107.23c0,1.736-0.417,2.994-1.248,3.771c-0.579,0.542-1.267,0.814-2.062,0.814
			c-0.271,0-0.534-0.032-0.787-0.095c-0.253-0.063-0.498-0.167-0.732-0.312v-2.578c0.018,0.037,0.036,0.064,0.054,0.082
			c0.145,0.163,0.371,0.244,0.678,0.244c0.38,0,0.642-0.167,0.787-0.502c0.145-0.334,0.217-0.737,0.217-1.208
			c0-0.76-0.199-1.257-0.597-1.492c-0.127-0.072-0.326-0.108-0.597-0.108h-0.706v1.221c0,1.628-0.461,2.827-1.384,3.595
			c-0.922,0.769-2.289,1.153-4.097,1.153c-1.248,0-2.325-0.28-3.229-0.841c-1.393-0.868-2.089-2.288-2.089-4.26
			c0-1.031,0.308-1.89,0.923-2.578c0.524-0.579,1.04-0.869,1.546-0.869v-4.748h11.831v2.578h-3.5v2.17h1.33
			c0.977,0,1.782,0.263,2.415,0.787C360.243,104.743,360.66,105.802,360.66,107.23z M352.411,107.17v-1.324h-2.469
			c-0.597,0-1.049,0.138-1.357,0.414c-0.308,0.276-0.461,0.644-0.461,1.104c0,0.607,0.19,1.058,0.57,1.352
			c0.38,0.294,0.868,0.441,1.465,0.441c0.923,0,1.556-0.22,1.899-0.662C352.293,108.182,352.411,107.741,352.411,107.17z
			 M352.411,103.269v-2.17h-1.818v2.17H352.411z"/>
		<path fill="#FFE349" d="M389.774,108.587c0,2.37-0.914,4.269-2.74,5.698c-1.411,1.103-3.292,1.891-5.644,2.361
			c-1.556,0.307-3.139,0.461-4.749,0.461c-4.649,0-8.267-1.066-10.854-3.197c-2.46-2.041-3.69-4.777-3.69-8.21
			c0-1.752,0.407-3.269,1.221-4.552c1.212-1.897,2.433-2.773,3.663-2.628v2.546c-0.416,0.199-0.814,0.705-1.194,1.517
			c-0.452,0.975-0.678,1.996-0.678,3.061c0,2.637,0.868,4.705,2.605,6.203c1.971,1.715,4.983,2.574,9.036,2.574
			c3.238,0,5.725-0.487,7.462-1.46c1.736-0.974,2.604-2.425,2.604-4.355c0-0.956-0.163-1.658-0.488-2.109
			c-0.217-0.306-0.479-0.459-0.787-0.459c-0.29,0-0.506,0.036-0.651,0.106c-0.163,0.125-0.281,0.214-0.353,0.268v5.351h-3.256
			v-10.664h-1.954v10.664h-3.256v-6.892c0-0.922-0.261-1.764-0.783-2.523c-0.576-0.832-1.314-1.248-2.215-1.248
			c-0.955,0-1.684,0.308-2.188,0.924c-0.342,0.417-0.585,1.015-0.729,1.793c0.289-0.328,0.823-0.492,1.601-0.492
			c0.343,0,0.633,0.036,0.868,0.108c0.814,0.199,1.415,0.661,1.804,1.384c0.389,0.724,0.583,1.637,0.583,2.741
			c0,1.501-0.417,2.641-1.248,3.418c-0.669,0.615-1.465,0.923-2.388,0.923c-1.212,0-2.162-0.379-2.849-1.138
			c-0.959-1.065-1.438-2.897-1.438-5.497c0-2.058,0.532-3.706,1.597-4.942c1.065-1.236,2.41-1.855,4.034-1.855
			c0.993,0,1.841,0.172,2.545,0.516c0.975,0.507,1.462,1.041,1.462,1.601v-2.062h9.492v2.578h-1.683v2.849
			c0.235-0.181,0.479-0.308,0.733-0.38c0.253-0.072,0.57-0.109,0.95-0.109c1.013,0,1.858,0.453,2.537,1.357
			C389.435,105.72,389.774,106.977,389.774,108.587z M372.11,107.649c0-0.441-0.1-0.82-0.298-1.137
			c-0.199-0.317-0.534-0.476-1.004-0.476c-0.254,0-0.507,0.018-0.76,0.054c0,1.104,0.068,1.886,0.203,2.347
			c0.136,0.461,0.457,0.692,0.963,0.692c0.326,0,0.556-0.128,0.692-0.383S372.11,108.125,372.11,107.649z"/>
		<path fill="#FFE349" d="M407.058,107.23c0,1.736-0.417,2.994-1.248,3.771c-0.579,0.542-1.267,0.814-2.062,0.814
			c-0.271,0-0.534-0.032-0.787-0.095c-0.253-0.063-0.498-0.167-0.732-0.312v-2.578c0.018,0.037,0.036,0.064,0.054,0.082
			c0.145,0.163,0.371,0.244,0.678,0.244c0.38,0,0.642-0.167,0.787-0.502c0.145-0.334,0.217-0.737,0.217-1.208
			c0-0.76-0.199-1.257-0.597-1.492c-0.127-0.072-0.326-0.108-0.597-0.108h-0.706v1.221c0,1.628-0.461,2.827-1.384,3.595
			c-0.922,0.769-2.289,1.153-4.097,1.153c-1.248,0-2.325-0.28-3.229-0.841c-1.393-0.868-2.089-2.288-2.089-4.26
			c0-1.031,0.308-1.89,0.923-2.578c0.524-0.579,1.04-0.869,1.546-0.869v-4.748h11.831v2.578h-3.5v2.17h1.33
			c0.977,0,1.782,0.263,2.415,0.787C406.642,104.743,407.058,105.802,407.058,107.23z M398.81,107.17v-1.324h-2.469
			c-0.597,0-1.049,0.138-1.357,0.414c-0.308,0.276-0.461,0.644-0.461,1.104c0,0.607,0.19,1.058,0.57,1.352
			c0.38,0.294,0.868,0.441,1.465,0.441c0.923,0,1.556-0.22,1.899-0.662C398.691,108.182,398.81,107.741,398.81,107.17z
			 M401.577,94.586c0,0.669-0.23,1.234-0.692,1.696s-1.027,0.692-1.696,0.692c-0.651,0-1.208-0.23-1.669-0.692
			s-0.692-1.026-0.692-1.696c0-0.651,0.226-1.212,0.678-1.683c0.452-0.47,1.013-0.705,1.683-0.705c0.669,0,1.234,0.23,1.696,0.692
			C401.347,93.351,401.577,93.917,401.577,94.586z M398.81,103.269v-2.17h-1.818v2.17H398.81z"/>
		<path fill="#FFE349" d="M429.172,108.576c0,2.798-1.158,4.883-3.473,6.255c-1.773,1.047-3.907,1.571-6.403,1.571
			c-3.438,0-6.142-1.031-8.113-3.089c-1.791-1.878-2.686-4.199-2.686-6.963c0-2.167,0.678-4.064,2.035-5.689
			c1.23-1.463,2.46-2.195,3.69-2.195c0.126,0,0.217,0,0.271,0v2.578c-0.706,0-1.366,0.537-1.981,1.611
			c-0.615,1.074-0.922,2.288-0.922,3.642c0,2.202,0.66,3.989,1.98,5.361c1.393,1.444,3.301,2.166,5.726,2.166
			c1.791,0,3.292-0.351,4.504-1.051c1.628-0.935,2.442-2.372,2.442-4.313c0-0.988-0.19-1.706-0.57-2.156
			c-0.271-0.305-0.597-0.458-0.977-0.458h-0.624v1.221c0,1.628-0.466,2.827-1.397,3.595c-0.932,0.769-2.284,1.153-4.057,1.153
			c-1.266,0-2.352-0.28-3.256-0.841c-1.393-0.868-2.089-2.288-2.089-4.26c0-1.031,0.307-1.89,0.922-2.578
			c0.524-0.579,1.04-0.869,1.547-0.869v-4.803h10.854v2.578h-2.523v2.225h0.624c1.338,0,2.419,0.465,3.243,1.395
			C428.76,105.593,429.172,106.897,429.172,108.576z M420.815,107.149v-1.302h-2.458c-0.655,0-1.124,0.113-1.406,0.339
			c-0.282,0.227-0.423,0.611-0.423,1.153c0,0.615,0.191,1.077,0.573,1.384c0.383,0.308,0.865,0.461,1.448,0.461
			c0.946,0,1.593-0.235,1.938-0.706C420.706,108.189,420.815,107.746,420.815,107.149z M420.815,103.269v-2.225h-1.818v2.225
			H420.815z"/>
	</g>
</g>
<g>
	<g>
		<path fill="#FFE349" d="M673.228,101.204h-1.492v10.718h-3.257v-10.718h-2.755c-1.098,0-1.886,0.24-2.363,0.719
			c-0.477,0.479-0.715,1.145-0.715,1.995c0.359-0.326,0.908-0.488,1.646-0.488c0.126,0,0.238,0,0.338,0
			c0.099,0,0.256,0.036,0.472,0.108c0.791,0.199,1.39,0.665,1.795,1.397c0.404,0.732,0.606,1.642,0.606,2.727
			c0,1.52-0.425,2.65-1.275,3.392c-0.651,0.579-1.465,0.868-2.441,0.868c-1.321,0-2.316-0.362-2.985-1.085
			c-0.94-1.013-1.411-2.839-1.411-5.481c0-2.225,0.57-3.925,1.71-5.101c1.067-1.085,2.532-1.628,4.396-1.628h7.733V101.204z
			 M664.49,107.716c0-0.633-0.099-1.067-0.294-1.303c-0.196-0.235-0.464-0.353-0.803-0.353c-0.249,0-0.499,0.045-0.748,0.136
			c0,1.14,0.049,1.922,0.146,2.347c0.099,0.425,0.388,0.638,0.869,0.638c0.321,0,0.539-0.118,0.655-0.353
			C664.433,108.593,664.49,108.222,664.49,107.716z"/>
		<path fill="#FFE349" d="M691.679,107.824c0,1.339-0.426,2.397-1.275,3.175c-0.76,0.688-1.7,1.031-2.822,1.031
			c-1.121,0-2.08-0.344-2.876-1.033c-0.887-0.78-1.329-1.805-1.329-3.074v-2.965c0-0.998-0.228-1.841-0.682-2.53
			c-0.527-0.816-1.272-1.224-2.235-1.224c-1.018,0-1.799,0.32-2.344,0.959c-0.4,0.457-0.646,1.042-0.736,1.754
			c0.182-0.145,0.414-0.262,0.696-0.353c0.281-0.09,0.595-0.135,0.94-0.135c0.128,0,0.241,0,0.342,0c0.1,0,0.259,0.036,0.478,0.108
			c0.818,0.199,1.437,0.665,1.854,1.397c0.419,0.732,0.628,1.642,0.628,2.727c0,1.52-0.425,2.65-1.275,3.392
			c-0.651,0.579-1.465,0.868-2.442,0.868c-1.248,0-2.197-0.343-2.849-1.031c-0.977-1.031-1.465-2.849-1.465-5.454
			c0-1.99,0.578-3.636,1.736-4.938c1.157-1.302,2.622-1.954,4.396-1.954c2.243,0,3.916,0.769,5.02,2.306
			c0.796,1.104,1.194,2.37,1.194,3.799v3.175c0,0.471,0.054,0.828,0.163,1.072c0.108,0.244,0.353,0.366,0.732,0.366
			c0.361,0,0.601-0.118,0.719-0.354c0.117-0.236,0.177-0.617,0.177-1.144v-3.811c0-0.962-0.055-1.597-0.163-1.906
			c-0.199-0.563-0.66-0.844-1.384-0.844v-2.578c1.339,0,2.433,0.362,3.283,1.085c1.013,0.869,1.52,2.153,1.52,3.853V107.824z
			 M679.306,107.716c0-0.633-0.108-1.067-0.326-1.303c-0.217-0.235-0.506-0.353-0.868-0.353c-0.235,0-0.479,0.045-0.732,0.136
			c0,1.104,0.059,1.877,0.177,2.32c0.117,0.443,0.411,0.665,0.882,0.665C679.016,109.181,679.306,108.692,679.306,107.716z
			 M685.275,94.691c0,0.669-0.231,1.234-0.692,1.696s-1.026,0.692-1.696,0.692c-0.669,0-1.229-0.226-1.682-0.678
			s-0.679-1.022-0.679-1.709c0-0.651,0.227-1.212,0.679-1.683c0.452-0.47,1.013-0.705,1.682-0.705c0.67,0,1.235,0.23,1.696,0.692
			C685.044,93.457,685.275,94.022,685.275,94.691z"/>
		<path fill="#FFE349" d="M710.618,107.824c0,1.339-0.426,2.397-1.275,3.175c-0.76,0.688-1.7,1.031-2.822,1.031
			c-1.121,0-2.08-0.344-2.876-1.033c-0.887-0.78-1.329-1.805-1.329-3.074v-2.965c0-0.998-0.228-1.841-0.682-2.53
			c-0.527-0.816-1.272-1.224-2.235-1.224c-1.018,0-1.799,0.32-2.344,0.959c-0.4,0.457-0.646,1.042-0.736,1.754
			c0.182-0.145,0.414-0.262,0.696-0.353c0.281-0.09,0.595-0.135,0.94-0.135c0.128,0,0.241,0,0.342,0c0.1,0,0.259,0.036,0.478,0.108
			c0.818,0.199,1.437,0.665,1.854,1.397c0.419,0.732,0.628,1.642,0.628,2.727c0,1.52-0.425,2.65-1.275,3.392
			c-0.651,0.579-1.465,0.868-2.442,0.868c-1.248,0-2.197-0.343-2.849-1.029c-0.977-1.029-1.465-2.843-1.465-5.443
			c0-1.986,0.578-3.628,1.736-4.928c1.157-1.3,2.622-1.95,4.396-1.95c2.243,0,3.916,0.767,5.02,2.301
			c0.796,1.101,1.194,2.364,1.194,3.79v3.167c0,0.469,0.054,0.825,0.163,1.069c0.108,0.244,0.353,0.365,0.732,0.365
			c0.361,0,0.601-0.118,0.719-0.354c0.117-0.236,0.177-0.617,0.177-1.144v-3.811c0-0.962-0.055-1.597-0.163-1.906
			c-0.199-0.563-0.66-0.844-1.384-0.844v-2.578c1.339,0,2.433,0.362,3.283,1.085c1.013,0.869,1.52,2.153,1.52,3.853V107.824z
			 M698.245,107.716c0-0.633-0.108-1.067-0.326-1.303c-0.217-0.235-0.506-0.353-0.868-0.353c-0.235,0-0.479,0.045-0.732,0.136
			c0,1.104,0.059,1.877,0.177,2.32c0.117,0.443,0.411,0.665,0.882,0.665C697.955,109.181,698.245,108.692,698.245,107.716z"/>
		<path fill="#FFE349" d="M723.29,101.204h-2.145v10.664h-3.256v-10.664h-2.388v10.664h-3.256V98.626h11.044V101.204z"/>
		<path fill="#FFE349" d="M735.392,107.852c0.018,0.108,0.027,0.212,0.027,0.312s0,0.203,0,0.312c0,1.194-0.443,2.125-1.33,2.794
			c-0.76,0.58-1.646,0.869-2.659,0.869c-1.682,0-3.093-0.506-4.232-1.52c-1.61-1.429-2.415-3.708-2.415-6.838
			c0-3.147,0.796-5.436,2.388-6.865c1.157-1.031,2.578-1.547,4.26-1.547c1.031,0,1.917,0.281,2.659,0.841
			c0.887,0.669,1.33,1.619,1.33,2.849c0,0.253-0.01,0.452-0.027,0.597c-0.146,1.158-0.724,2.026-1.736,2.605
			c-0.797,0.452-1.692,0.678-2.687,0.678c-1.212,0-2.171-0.235-2.876-0.706c-0.055,0.235-0.091,0.489-0.108,0.76
			c-0.019,0.271-0.027,0.516-0.027,0.733c0,0.235,0.004,0.457,0.014,0.665c0.009,0.208,0.049,0.502,0.122,0.882
			c0.289-0.199,0.691-0.366,1.207-0.502s1.072-0.203,1.669-0.203c0.994,0,1.881,0.217,2.659,0.651
			C734.659,105.798,735.246,106.676,735.392,107.852z M732.624,99.44c0.145-0.434,0.039-0.778-0.315-1.031
			c-0.354-0.253-0.832-0.38-1.433-0.38c-0.455,0.037-0.938,0.263-1.448,0.678c-0.51,0.417-0.819,0.859-0.929,1.33
			c0.219,0.109,0.573,0.204,1.065,0.285c0.492,0.081,0.874,0.122,1.147,0.122c0.51,0,0.929-0.072,1.256-0.217
			C732.296,100.082,732.515,99.82,732.624,99.44z M732.597,108.068c-0.108-0.38-0.33-0.646-0.665-0.8s-0.755-0.231-1.262-0.231
			c-0.434,0-0.837,0.041-1.207,0.123c-0.371,0.081-0.692,0.186-0.964,0.312c0.127,0.47,0.435,0.914,0.923,1.33
			s0.968,0.642,1.438,0.678c0.651,0,1.107-0.113,1.37-0.339c0.262-0.226,0.394-0.493,0.394-0.8
			C732.624,108.213,732.614,108.123,732.597,108.068z"/>
		<path fill="#FFE349" d="M750.83,105.098c0,2.527-0.488,4.314-1.466,5.361c-0.868,0.939-2.234,1.408-4.097,1.408h-8.466V98.626
			h3.256v10.664h1.98v-6.306c0-1.317,0.344-2.364,1.031-3.14c0.76-0.848,1.836-1.272,3.229-1.272c1.429,0,2.523,0.506,3.283,1.517
			C750.413,101.189,750.83,102.859,750.83,105.098z M747.384,105.206v-0.703c0-1.352-0.086-2.231-0.258-2.637
			c-0.172-0.405-0.447-0.608-0.827-0.608c-0.344,0-0.598,0.162-0.76,0.487c-0.163,0.325-0.244,0.82-0.244,1.487v6.058
			c0.76,0,1.297-0.239,1.614-0.717C747.226,108.095,747.384,106.973,747.384,105.206z"/>
		<path fill="#FFE349" d="M775.142,104.514h-3.256v-2.74c0-1.447-0.424-2.623-1.271-3.527c-0.902-0.959-2.111-1.438-3.627-1.438
			c-1.642,0-2.94,0.516-3.896,1.547c-0.884,0.941-1.326,2.107-1.326,3.5c0,0.724,0.045,1.348,0.135,1.873
			c0.09,0.525,0.262,1.041,0.514,1.546c0.45-0.145,0.914-0.262,1.392-0.353c0.478-0.09,0.896-0.158,1.256-0.204
			c0.36-0.045,0.64-0.077,0.838-0.095s0.459-0.027,0.783-0.027c0.271,0,0.505,0.009,0.703,0.027s0.423,0.045,0.675,0.081
			c0.036-0.253,0.055-0.452,0.055-0.597c0-0.09,0-0.163,0-0.217s-0.027-0.108-0.081-0.163c-0.18,0.061-0.421,0.117-0.726,0.168
			c-0.305,0.051-0.815,0.076-1.531,0.076c-0.932,0-1.68-0.241-2.243-0.723c-0.563-0.481-0.846-1.149-0.846-2.004
			c0-0.672,0.316-1.282,0.949-1.827c0.724-0.618,1.691-0.927,2.903-0.927c1.664,0,2.867,0.597,3.609,1.791
			c0.524,0.833,0.787,1.828,0.787,2.985c0,0.453-0.023,0.837-0.068,1.153c-0.045,0.317-0.077,0.574-0.095,0.773
			c0.904,0.253,1.678,0.8,2.32,1.642c0.642,0.841,0.963,1.759,0.963,2.754c0,1.248-0.412,2.216-1.234,2.903
			c-0.823,0.688-1.832,1.031-3.025,1.031c-0.724,0-1.397-0.073-2.021-0.217c-0.624-0.145-1.244-0.425-1.859-0.841
			c-0.615,0.408-1.013,0.649-1.193,0.724c-0.525,0.222-1.248,0.334-2.171,0.334c-0.904,0-1.691-0.173-2.36-0.518
			c-0.887-0.454-1.466-1.181-1.737-2.179c-0.072-0.272-0.108-0.563-0.108-0.872c0-0.799,0.253-1.544,0.76-2.234
			c0.397-0.527,0.76-0.854,1.086-0.981c-0.271-0.343-0.516-0.732-0.733-1.167c-0.633-1.23-0.949-2.469-0.949-3.718
			c0-2.225,0.796-4.033,2.388-5.427c1.592-1.393,3.572-2.089,5.942-2.089c2.568,0,4.595,0.669,6.078,2.008s2.225,3.093,2.225,5.264
			V104.514z M764.044,111.189c-0.179-0.145-0.322-0.262-0.43-0.353c-0.34-0.289-0.645-0.57-0.913-0.841
			c-0.161-0.145-0.367-0.362-0.617-0.651c-0.18-0.217-0.35-0.434-0.511-0.651c-0.325,0.38-0.441,0.833-0.351,1.357
			c0.09,0.488,0.307,0.841,0.65,1.058s0.724,0.326,1.14,0.326C763.465,111.433,763.809,111.352,764.044,111.189z M767.626,106.793
			h-0.923c-0.217,0-0.421,0-0.61,0c-0.19,0-0.479,0.023-0.868,0.068c-0.39,0.045-0.742,0.118-1.059,0.217
			c-0.316,0.1-0.556,0.176-0.719,0.23c0.054,0.091,0.199,0.281,0.434,0.57c0.235,0.29,0.443,0.525,0.625,0.706
			c0.271,0.29,0.451,0.479,0.542,0.57c0.271,0.271,0.516,0.488,0.732,0.651c0.29-0.308,0.643-0.778,1.059-1.411
			c0.217-0.326,0.384-0.606,0.502-0.841C767.458,107.318,767.554,107.064,767.626,106.793z M768.033,102.18
			c0-0.397-0.118-0.741-0.354-1.031s-0.552-0.434-0.949-0.434c-0.796,0-1.194,0.285-1.194,0.855c0,0.552,0.38,0.827,1.14,0.827
			c0.326,0,0.696-0.052,1.113-0.155C767.843,102.242,767.924,102.222,768.033,102.18z M770.909,109.94
			c0.145-0.289,0.217-0.569,0.217-0.841c0-0.344-0.077-0.656-0.23-0.936c-0.154-0.28-0.376-0.511-0.665-0.692
			c-0.181,0.416-0.308,0.705-0.38,0.868c-0.145,0.308-0.344,0.642-0.597,1.004c-0.507,0.76-0.968,1.312-1.384,1.655
			c0.308,0.126,0.633,0.19,0.977,0.19c0.435,0,0.832-0.113,1.194-0.339C770.402,110.624,770.692,110.32,770.909,109.94z"/>
		<path fill="#FFE349" d="M793.945,111.867H781.41v-2.578h2.659c0.831,0,1.455-0.308,1.872-0.923
			c0.343-0.506,0.516-1.112,0.516-1.818c0-0.47-0.063-0.841-0.188-1.112c-0.179-0.38-0.455-0.57-0.829-0.57
			c-0.213,0-0.387,0.077-0.521,0.23c-0.134,0.154-0.219,0.321-0.254,0.502v2.741h-3.256v-7.136h-1.574v10.664h-3.256V98.626h11.776
			v2.578h-3.69v1.954c0.216-0.308,0.485-0.516,0.81-0.624c0.323-0.109,0.638-0.163,0.944-0.163c1.007,0,1.789,0.389,2.348,1.167
			c0.485,0.688,0.729,1.556,0.729,2.605c0,0.814-0.173,1.542-0.516,2.184c-0.344,0.643-0.706,0.963-1.086,0.963h2.795V98.626h3.256
			V111.867z M787.135,94.691c0,0.651-0.227,1.212-0.678,1.682c-0.453,0.471-1.014,0.706-1.683,0.706c-0.67,0-1.234-0.23-1.696-0.692
			c-0.461-0.461-0.691-1.026-0.691-1.696c0-0.669,0.23-1.235,0.691-1.696c0.462-0.461,1.026-0.692,1.696-0.692
			c0.651,0,1.207,0.23,1.669,0.692C786.904,93.457,787.135,94.022,787.135,94.691z"/>
		<path fill="#FFE349" d="M816.195,108.682c0,2.798-1.158,4.883-3.473,6.255c-1.773,1.047-3.907,1.571-6.404,1.571
			c-3.437,0-6.142-1.031-8.112-3.089c-1.791-1.878-2.687-4.199-2.687-6.963c0-2.167,0.678-4.064,2.035-5.689
			c1.229-1.463,2.46-2.195,3.689-2.195c0.127,0,0.218,0,0.271,0v2.578c-0.705,0-1.365,0.537-1.98,1.611
			c-0.615,1.074-0.923,2.288-0.923,3.642c0,2.202,0.66,3.989,1.981,5.361c1.393,1.444,3.301,2.166,5.725,2.166
			c1.791,0,3.292-0.351,4.505-1.051c1.628-0.935,2.441-2.372,2.441-4.313c0-0.988-0.189-1.706-0.569-2.156
			c-0.271-0.305-0.597-0.458-0.977-0.458h-0.624v1.221c0,1.628-0.467,2.827-1.397,3.595c-0.933,0.769-2.284,1.153-4.057,1.153
			c-1.267,0-2.353-0.28-3.257-0.841c-1.393-0.868-2.089-2.288-2.089-4.26c0-1.031,0.308-1.89,0.923-2.578
			c0.524-0.579,1.04-0.869,1.546-0.869v-4.803h10.854v2.578h-2.523v2.225h0.624c1.338,0,2.419,0.465,3.242,1.395
			C815.784,105.698,816.195,107.002,816.195,108.682z M807.838,107.254v-1.302h-2.457c-0.656,0-1.124,0.113-1.407,0.339
			c-0.282,0.227-0.423,0.611-0.423,1.153c0,0.615,0.191,1.077,0.573,1.384c0.383,0.308,0.865,0.461,1.447,0.461
			c0.946,0,1.593-0.235,1.939-0.706C807.729,108.295,807.838,107.852,807.838,107.254z M807.838,103.374v-2.225h-1.817v2.225
			H807.838z"/>
		<path fill="#FFE349" d="M840.479,104.514h-3.256v-2.74c0-1.447-0.424-2.623-1.271-3.527c-0.902-0.959-2.111-1.438-3.627-1.438
			c-1.642,0-2.94,0.516-3.896,1.547c-0.884,0.941-1.326,2.107-1.326,3.5c0,0.724,0.045,1.348,0.135,1.873
			c0.09,0.525,0.262,1.041,0.514,1.546c0.45-0.145,0.914-0.262,1.392-0.353c0.478-0.09,0.896-0.158,1.256-0.204
			c0.36-0.045,0.64-0.077,0.838-0.095s0.459-0.027,0.783-0.027c0.271,0,0.505,0.009,0.703,0.027s0.423,0.045,0.675,0.081
			c0.036-0.253,0.055-0.452,0.055-0.597c0-0.09,0-0.163,0-0.217s-0.027-0.108-0.081-0.163c-0.18,0.061-0.421,0.117-0.726,0.168
			c-0.305,0.051-0.815,0.076-1.531,0.076c-0.932,0-1.68-0.241-2.243-0.723c-0.563-0.481-0.846-1.149-0.846-2.004
			c0-0.672,0.316-1.282,0.949-1.827c0.724-0.618,1.691-0.927,2.903-0.927c1.664,0,2.867,0.597,3.609,1.791
			c0.524,0.833,0.787,1.828,0.787,2.985c0,0.453-0.023,0.837-0.068,1.153c-0.045,0.317-0.077,0.574-0.095,0.773
			c0.904,0.253,1.678,0.8,2.32,1.642c0.642,0.841,0.963,1.759,0.963,2.754c0,1.248-0.412,2.216-1.234,2.903
			c-0.823,0.688-1.832,1.031-3.025,1.031c-0.724,0-1.397-0.073-2.021-0.217c-0.624-0.145-1.244-0.425-1.859-0.841
			c-0.615,0.408-1.013,0.649-1.193,0.724c-0.525,0.222-1.248,0.334-2.171,0.334c-0.904,0-1.691-0.173-2.36-0.518
			c-0.887-0.454-1.466-1.181-1.737-2.179c-0.072-0.272-0.108-0.563-0.108-0.872c0-0.799,0.253-1.544,0.76-2.234
			c0.397-0.527,0.76-0.854,1.086-0.981c-0.271-0.343-0.516-0.732-0.733-1.167c-0.633-1.23-0.949-2.469-0.949-3.718
			c0-2.225,0.796-4.033,2.388-5.427c1.592-1.393,3.572-2.089,5.942-2.089c2.568,0,4.595,0.669,6.078,2.008s2.225,3.093,2.225,5.264
			V104.514z M829.382,111.189c-0.179-0.145-0.322-0.262-0.43-0.353c-0.34-0.289-0.645-0.57-0.913-0.841
			c-0.161-0.145-0.367-0.362-0.617-0.651c-0.18-0.217-0.35-0.434-0.511-0.651c-0.325,0.38-0.441,0.833-0.351,1.357
			c0.09,0.488,0.307,0.841,0.65,1.058s0.724,0.326,1.14,0.326C828.803,111.433,829.146,111.352,829.382,111.189z M832.964,106.793
			h-0.923c-0.217,0-0.421,0-0.61,0c-0.19,0-0.479,0.023-0.868,0.068c-0.39,0.045-0.742,0.118-1.059,0.217
			c-0.316,0.1-0.556,0.176-0.719,0.23c0.054,0.091,0.199,0.281,0.434,0.57c0.235,0.29,0.443,0.525,0.625,0.706
			c0.271,0.29,0.451,0.479,0.542,0.57c0.271,0.271,0.516,0.488,0.732,0.651c0.29-0.308,0.643-0.778,1.059-1.411
			c0.217-0.326,0.384-0.606,0.502-0.841C832.796,107.318,832.892,107.064,832.964,106.793z M833.371,102.18
			c0-0.397-0.118-0.741-0.354-1.031s-0.552-0.434-0.949-0.434c-0.796,0-1.194,0.285-1.194,0.855c0,0.552,0.38,0.827,1.14,0.827
			c0.326,0,0.696-0.052,1.113-0.155C833.181,102.242,833.262,102.222,833.371,102.18z M836.247,109.94
			c0.145-0.289,0.217-0.569,0.217-0.841c0-0.344-0.077-0.656-0.23-0.936c-0.154-0.28-0.376-0.511-0.665-0.692
			c-0.181,0.416-0.308,0.705-0.38,0.868c-0.145,0.308-0.344,0.642-0.597,1.004c-0.507,0.76-0.968,1.312-1.384,1.655
			c0.308,0.126,0.633,0.19,0.977,0.19c0.435,0,0.832-0.113,1.194-0.339C835.74,110.624,836.03,110.32,836.247,109.94z"/>
		<path fill="#FFE349" d="M861.889,108.704c0,2.81-1.131,4.894-3.392,6.253c-1.719,1.033-3.826,1.551-6.322,1.551
			c-3.166,0-5.698-1.031-7.598-3.089c-1.755-1.896-2.632-4.217-2.632-6.963c0-2.185,0.569-4.082,1.709-5.689
			c1.049-1.463,2.152-2.195,3.311-2.195c0.126,0,0.217,0,0.271,0v2.578c-0.67,0-1.213,0.506-1.628,1.517
			c-0.417,1.011-0.624,2.256-0.624,3.736c0,2.184,0.659,3.985,1.98,5.402c1.32,1.417,3.084,2.125,5.291,2.125
			c1.845,0,3.311-0.323,4.396-0.97c1.556-0.935,2.334-2.498,2.334-4.689c0-0.665-0.141-1.213-0.421-1.644s-0.583-0.647-0.909-0.647
			c-0.362,0-0.583,0.019-0.665,0.054c-0.081,0.036-0.14,0.081-0.176,0.135v5.646h-3.256v-10.664h-2.035v10.664h-3.256V98.571h11.016
			v2.578h-2.469v2.442c-0.019-0.022-0.019-0.073,0-0.153c0.018-0.079,0.37-0.119,1.059-0.119c1.229,0,2.206,0.467,2.93,1.4
			S861.889,106.982,861.889,108.704z"/>
		<path fill="#FFE349" d="M879.255,107.336c0,1.736-0.417,2.994-1.249,3.771c-0.579,0.542-1.266,0.814-2.062,0.814
			c-0.271,0-0.534-0.032-0.787-0.095c-0.254-0.063-0.498-0.167-0.732-0.312v-2.578c0.018,0.037,0.036,0.064,0.054,0.082
			c0.145,0.163,0.371,0.244,0.679,0.244c0.38,0,0.642-0.167,0.787-0.502c0.145-0.334,0.217-0.737,0.217-1.208
			c0-0.76-0.199-1.257-0.597-1.492c-0.127-0.072-0.326-0.108-0.597-0.108h-0.706v1.221c0,1.628-0.461,2.827-1.384,3.595
			c-0.923,0.769-2.288,1.153-4.098,1.153c-1.248,0-2.324-0.28-3.229-0.841c-1.394-0.868-2.089-2.288-2.089-4.26
			c0-1.031,0.307-1.89,0.922-2.578c0.524-0.579,1.04-0.869,1.547-0.869v-4.748h11.83v2.578h-3.5v2.17h1.33
			c0.977,0,1.781,0.263,2.414,0.787C878.838,104.849,879.255,105.907,879.255,107.336z M871.006,107.276v-1.324h-2.47
			c-0.597,0-1.049,0.138-1.356,0.414c-0.308,0.276-0.461,0.644-0.461,1.104c0,0.607,0.189,1.058,0.569,1.352
			c0.38,0.294,0.868,0.441,1.466,0.441c0.922,0,1.556-0.22,1.899-0.662C870.888,108.288,871.006,107.846,871.006,107.276z
			 M873.773,94.691c0,0.669-0.23,1.234-0.692,1.696c-0.461,0.461-1.026,0.692-1.695,0.692c-0.651,0-1.208-0.23-1.669-0.692
			s-0.691-1.026-0.691-1.696c0-0.651,0.226-1.212,0.678-1.683c0.452-0.47,1.013-0.705,1.683-0.705c0.669,0,1.234,0.23,1.695,0.692
			C873.543,93.457,873.773,94.022,873.773,94.691z M871.006,103.374v-2.17h-1.818v2.17H871.006z"/>
		<path fill="#FFE349" d="M901.368,108.682c0,2.798-1.158,4.883-3.473,6.255c-1.773,1.047-3.907,1.571-6.404,1.571
			c-3.437,0-6.142-1.031-8.112-3.089c-1.791-1.878-2.687-4.199-2.687-6.963c0-2.167,0.678-4.064,2.035-5.689
			c1.229-1.463,2.46-2.195,3.689-2.195c0.127,0,0.218,0,0.271,0v2.578c-0.705,0-1.365,0.537-1.98,1.611
			c-0.615,1.074-0.923,2.288-0.923,3.642c0,2.202,0.66,3.989,1.981,5.361c1.393,1.444,3.301,2.166,5.725,2.166
			c1.791,0,3.292-0.351,4.505-1.051c1.628-0.935,2.441-2.372,2.441-4.313c0-0.988-0.189-1.706-0.569-2.156
			c-0.271-0.305-0.597-0.458-0.977-0.458h-0.624v1.221c0,1.628-0.467,2.827-1.397,3.595c-0.933,0.769-2.284,1.153-4.057,1.153
			c-1.267,0-2.353-0.28-3.257-0.841c-1.393-0.868-2.089-2.288-2.089-4.26c0-1.031,0.308-1.89,0.923-2.578
			c0.524-0.579,1.04-0.869,1.546-0.869v-4.803h10.854v2.578h-2.523v2.225h0.624c1.338,0,2.419,0.465,3.242,1.395
			C900.957,105.698,901.368,107.002,901.368,108.682z M893.011,107.254v-1.302h-2.457c-0.656,0-1.124,0.113-1.407,0.339
			c-0.282,0.227-0.423,0.611-0.423,1.153c0,0.615,0.191,1.077,0.573,1.384c0.383,0.308,0.865,0.461,1.447,0.461
			c0.946,0,1.593-0.235,1.939-0.706C892.901,108.295,893.011,107.852,893.011,107.254z M893.011,103.374v-2.225h-1.817v2.225
			H893.011z"/>
	</g>
</g>
</svg>
